# xmcd CD database file
#
# Track frame offsets:
#	150
#	14892
#	31443
#	46209
#	60863
#	79692
#	99280
#	121719
#	137251
#	155511
#	174886
#	194763
#	213338
#	230335
#	245902
#	260900
#	274581
#	293252
#	308147
#
# Disc length: 4322 seconds
#
# Revision: 2
# Processed by: cddbd v1.5PL3 Copyright (c) Steve Scherf et al.
# Submitted via: CDex 1.50beta9
#
DISCID=fe10e013
DTITLE=Kylie Minogue - Body Language
DYEAR=1900
DGENRE=
TTITLE0=Slow
TTITLE1=Still Standing
TTITLE2=Secret Take You Home
TTITLE3=Promises
TTITLE4=Sweet Music
TTITLE5=Red Blooded Woman
TTITLE6=Chocolate
TTITLE7=Obsession
TTITLE8=I Feel For You
TTITLE9=Someday
TTITLE10=Loving Days
TTITLE11=After Dark
TTITLE12=Hand On Your Heart
TTITLE13=Made In Heaven
TTITLE14=I Should Be So Lucky
TTITLE15=Give Me Just A Little More Time
TTITLE16=Say The Word
TTITLE17=Never Too Late
TTITLE18=So Now Goodbye
EXTD=
EXTT0=
EXTT1=
EXTT2=
EXTT3=
EXTT4=
EXTT5=
EXTT6=
EXTT7=
EXTT8=
EXTT9=
EXTT10=
EXTT11=
EXTT12=
EXTT13=
EXTT14=
EXTT15=
EXTT16=
EXTT17=
EXTT18=
PLAYORDER=
